<?xml version="1.0" encoding="UTF-8"?>
<svg xmlns="http://www.w3.org/2000/svg" xmlns:xlink="http://www.w3.org/1999/xlink" width="48px" height="48px" viewBox="0 0 48 48" version="1.1">
<g id="surface1">
<path style=" stroke:none;fill-rule:nonzero;fill:rgb(100%,50.196081%,50.196081%);fill-opacity:1;" d="M 22.585938 17.8125 L 22.585938 22.359375 L 12.03125 11.453125 L 15.535156 7.832031 L 20.859375 13.335938 C 20.71875 13.734375 20.644531 14.15625 20.648438 14.578125 C 20.644531 15.953125 21.394531 17.207031 22.585938 17.8125 Z M 25.820312 18.46875 L 27.460938 20.164062 L 25.820312 21.863281 Z M 35.859375 11.488281 L 29.519531 18.035156 L 27.382812 15.835938 C 27.578125 15.296875 27.644531 14.714844 27.574219 14.144531 C 27.351562 12.414062 25.96875 11.09375 24.28125 11 C 23.816406 10.976562 23.355469 11.050781 22.917969 11.21875 L 17.589844 5.691406 L 22.105469 1.042969 C 22.589844 0.539062 23.246094 0.257812 23.929688 0.257812 C 24.617188 0.257812 25.273438 0.539062 25.757812 1.042969 Z M 35.859375 11.488281 "/>
<path style=" stroke:none;fill-rule:nonzero;fill:rgb(50.196081%,70.19608%,100%);fill-opacity:1;" d="M 20.488281 26.535156 L 10.898438 36.445312 L 1.382812 26.707031 C 0.261719 25.5 0.277344 23.59375 1.414062 22.410156 L 11.226562 12.265625 L 20.488281 21.867188 C 21.734375 23.160156 21.734375 25.246094 20.488281 26.535156 Z M 20.488281 26.535156 "/>
<path style=" stroke:none;fill-rule:nonzero;fill:rgb(100%,90.196079%,50.196081%);fill-opacity:1;" d="M 25.839844 27.714844 L 25.839844 31.878906 C 27.035156 32.613281 27.660156 34.042969 27.402344 35.457031 C 27.167969 36.835938 26.132812 37.921875 24.800781 38.1875 C 23.167969 38.554688 21.527344 37.613281 20.964844 35.988281 C 20.40625 34.363281 21.097656 32.558594 22.585938 31.777344 L 22.585938 27.175781 C 22.574219 27.042969 22.492188 26.925781 22.371094 26.875 C 22.25 26.824219 22.113281 26.84375 22.015625 26.929688 L 11.964844 37.3125 L 22.304688 48 C 23.308594 49.035156 24.933594 49.035156 25.9375 48 L 35.691406 37.9375 Z M 25.839844 27.714844 "/>
<path style=" stroke:none;fill-rule:nonzero;fill:rgb(55.29412%,82.745099%,37.254903%);fill-opacity:1;" d="M 46.359375 27.230469 L 37.054688 36.847656 L 27.039062 26.496094 C 25.867188 25.285156 25.867188 23.324219 27.039062 22.113281 L 28.191406 20.910156 L 30.746094 23.542969 C 30.183594 25.125 30.757812 26.902344 32.136719 27.8125 C 33.511719 28.722656 35.3125 28.519531 36.46875 27.324219 C 37.621094 26.132812 37.816406 24.269531 36.9375 22.847656 C 36.058594 21.425781 34.339844 20.828125 32.808594 21.414062 L 30.265625 18.789062 L 36.765625 12.078125 L 46.359375 21.996094 C 47.03125 22.6875 47.414062 23.628906 47.414062 24.613281 C 47.414062 25.597656 47.03125 26.539062 46.359375 27.230469 Z M 46.359375 27.230469 "/>
</g>
</svg>
