<?xml version="1.0" encoding="UTF-8"?>
<svg xmlns="http://www.w3.org/2000/svg" xmlns:xlink="http://www.w3.org/1999/xlink" width="48px" height="48px" viewBox="0 0 48 48" version="1.1">
<g id="surface1">
<path style=" stroke:none;fill-rule:nonzero;fill:rgb(40.392157%,40.784314%,40.392157%);fill-opacity:1;" d="M 2.015625 15.507812 L 0 47.273438 L 0.859375 47.273438 L 2.613281 18.089844 L 2.636719 18.089844 L 4.132812 47.273438 L 5.019531 47.273438 L 10.152344 18.535156 L 10.179688 18.535156 L 8.269531 47.273438 L 9.140625 47.273438 L 11.128906 15.507812 L 9.839844 15.507812 L 4.746094 44.027344 L 3.300781 15.507812 Z M 2.015625 15.507812 "/>
<path style=" stroke:none;fill-rule:nonzero;fill:rgb(40.392157%,40.784314%,40.392157%);fill-opacity:1;" d="M 11.964844 24.320312 L 10.519531 47.273438 L 11.339844 47.273438 L 12.78125 24.320312 Z M 11.964844 24.320312 "/>
<path style=" stroke:none;fill-rule:nonzero;fill:rgb(40.392157%,40.784314%,40.392157%);fill-opacity:1;" d="M 13.957031 24.316406 L 12.535156 47.273438 L 13.351562 47.273438 L 13.871094 38.957031 L 15.300781 34.867188 L 17.082031 47.273438 L 17.980469 47.273438 L 15.953125 33.171875 L 19.125 24.320312 L 18.03125 24.320312 L 14.105469 35.527344 L 14.078125 35.441406 L 14.777344 24.316406 Z M 13.957031 24.316406 "/>
<path style=" stroke:none;fill-rule:nonzero;fill:rgb(40.392157%,40.784314%,40.392157%);fill-opacity:1;" d="M 19.605469 24.316406 L 18.164062 47.273438 L 18.984375 47.273438 L 19.738281 35.265625 C 20.011719 30.949219 20.792969 26.902344 22.261719 26.8125 C 22.417969 26.8125 22.574219 26.859375 22.730469 26.859375 L 22.910156 24.0625 C 22.769531 24.015625 22.609375 24.015625 22.46875 24.015625 C 21.269531 23.96875 20.558594 26.347656 20.039062 29.609375 L 20.011719 29.609375 L 20.351562 24.316406 Z M 19.605469 24.316406 "/>
<path style=" stroke:none;fill-rule:nonzero;fill:rgb(40.392157%,40.784314%,40.392157%);fill-opacity:1;" d="M 28.589844 32.636719 C 28.589844 26.984375 27.5 23.652344 25.9375 23.652344 C 23.546875 23.652344 22.195312 30.863281 22.195312 38.378906 C 22.195312 44.125 23.144531 47.945312 24.871094 47.945312 C 27.355469 47.945312 28.589844 40.382812 28.589844 32.640625 M 27.773438 33.21875 C 27.773438 38.554688 26.820312 45.589844 25.027344 45.589844 C 23.667969 45.589844 23.015625 42.5625 23.015625 38.132812 C 23.015625 32.75 24.003906 26.015625 25.796875 26.015625 C 27.109375 26.015625 27.773438 28.953125 27.773438 33.21875 "/>
<path style=" stroke:none;fill-rule:nonzero;fill:rgb(40.392157%,40.784314%,40.392157%);fill-opacity:1;" d="M 36.453125 24.300781 L 36.984375 15.503906 L 28.976562 15.503906 L 28.445312 24.316406 L 31.015625 24.316406 L 31.015625 24.320312 L 33.878906 24.320312 L 33.878906 24.316406 Z M 36.453125 24.300781 "/>
<path style=" stroke:none;fill-rule:nonzero;fill:rgb(40.392157%,40.784314%,40.392157%);fill-opacity:1;" d="M 30.761719 28.523438 L 29.625 47.269531 L 32.484375 47.269531 L 33.625 28.527344 L 33.625 28.519531 L 30.761719 28.519531 Z M 30.761719 28.523438 "/>
<path style=" stroke:none;fill-rule:nonzero;fill:rgb(40.392157%,40.784314%,40.392157%);fill-opacity:1;" d="M 36.910156 28.523438 L 35.777344 47.265625 L 38.355469 47.265625 L 39.488281 28.523438 Z M 39.75 24.300781 L 40.28125 15.503906 L 37.703125 15.503906 L 37.164062 24.308594 Z M 39.75 24.300781 "/>
<path style=" stroke:none;fill-rule:nonzero;fill:rgb(40.392157%,40.784314%,40.392157%);fill-opacity:1;" d="M 41.34375 15.503906 L 39.421875 47.269531 L 41.992188 47.269531 L 42.398438 40.6875 L 42.980469 38.90625 L 43.890625 47.269531 L 46.6875 47.269531 L 44.96875 33.476562 L 48 24.179688 L 44.917969 24.179688 L 43.019531 30.941406 L 42.996094 30.941406 L 43.917969 15.503906 Z M 41.34375 15.503906 "/>
<path style=" stroke:none;fill-rule:nonzero;fill:rgb(40.392157%,40.784314%,40.392157%);fill-opacity:1;" d="M 13.070312 0.0546875 C 13.382812 9.023438 14.554688 14.46875 16.945312 14.914062 C 14.695312 18.453125 12.375 10.136719 13.070312 0.0546875 "/>
<path style=" stroke:none;fill-rule:nonzero;fill:rgb(40.392157%,40.784314%,40.392157%);fill-opacity:1;" d="M 11.820312 1.628906 C 11.847656 1.605469 11.851562 1.679688 11.851562 1.757812 C 11.929688 7.476562 12.515625 11.816406 13.292969 14.785156 C 14.175781 18.292969 15.367188 20.191406 16.59375 20.046875 C 13.832031 24.5625 10.933594 13.710938 11.820312 1.628906 "/>
</g>
</svg>
