<?xml version="1.0" encoding="UTF-8"?>
<svg xmlns="http://www.w3.org/2000/svg" xmlns:xlink="http://www.w3.org/1999/xlink" width="48px" height="48px" viewBox="0 0 48 48" version="1.1">
<g id="surface1">
<path style=" stroke:none;fill-rule:evenodd;fill:rgb(0%,0%,0%);fill-opacity:1;" d="M 12.929688 0.0117188 C 11.945312 0.0117188 11.082031 0.214844 10.257812 0.628906 C 9.449219 1.039062 8.738281 1.589844 8.109375 2.3125 L 24.046875 22.464844 L 39.945312 2.300781 C 39.320312 1.578125 38.605469 1.027344 37.753906 0.617188 C 36.976562 0.207031 36.066406 0 35.128906 0 C 34.144531 0 33.207031 0.238281 32.371094 0.671875 C 31.507812 1.101562 30.804688 1.75 30.148438 2.507812 L 24.039062 10.3125 L 17.851562 2.507812 C 17.222656 1.75 16.507812 1.113281 15.628906 0.671875 C 14.851562 0.238281 13.914062 0.0117188 12.929688 0.0117188 M 24.039062 25.511719 L 8.101562 45.699219 C 8.726562 46.398438 9.441406 46.972656 10.246094 47.382812 C 11.082031 47.792969 11.945312 48 12.871094 48 C 13.902344 48 14.792969 47.742188 15.628906 47.328125 C 16.507812 46.863281 17.269531 46.25 17.898438 45.492188 L 24.039062 37.6875 L 30.167969 45.492188 C 30.796875 46.25 31.507812 46.863281 32.363281 47.328125 C 33.195312 47.742188 34.105469 48 35.117188 48 C 36.054688 48 36.964844 47.792969 37.742188 47.382812 C 38.605469 46.972656 39.308594 46.390625 39.9375 45.699219 Z M 24.039062 25.511719 "/>
<path style=" stroke:none;fill-rule:evenodd;fill:rgb(89.803922%,43.921569%,0%);fill-opacity:1;" d="M 5.25 6.066406 C 4.238281 6.097656 3.253906 6.324219 2.371094 6.765625 C 1.460938 7.199219 0.683594 7.816406 0 8.574219 L 12.167969 24 L 0 39.40625 C 0.683594 40.195312 1.460938 40.800781 2.371094 41.265625 C 3.253906 41.730469 4.238281 41.933594 5.25 41.988281 C 6.335938 41.933594 7.351562 41.730469 8.277344 41.199219 C 9.214844 40.703125 10.023438 40.03125 10.695312 39.1875 L 22.695312 24 L 10.707031 8.832031 C 9.976562 8.023438 9.1875 7.351562 8.257812 6.820312 C 7.320312 6.324219 6.335938 6.097656 5.25 6.066406 M 42.722656 6.066406 C 41.632812 6.097656 40.679688 6.324219 39.742188 6.820312 C 38.804688 7.339844 37.996094 8.011719 37.292969 8.832031 L 25.351562 24 L 37.292969 39.199219 C 37.996094 40.042969 38.8125 40.714844 39.742188 41.210938 C 40.679688 41.730469 41.632812 41.933594 42.722656 42 C 43.808594 41.945312 44.738281 41.742188 45.628906 41.277344 C 46.585938 40.8125 47.316406 40.195312 48 39.417969 L 35.859375 24 L 48 8.574219 C 47.316406 7.816406 46.585938 7.199219 45.628906 6.765625 C 44.746094 6.324219 43.808594 6.097656 42.722656 6.066406 "/>
</g>
</svg>
