<?xml version="1.0" encoding="UTF-8"?>
<svg xmlns="http://www.w3.org/2000/svg" xmlns:xlink="http://www.w3.org/1999/xlink" width="48px" height="48px" viewBox="0 0 48 48" version="1.1">
<g id="surface1">
<path style=" stroke:none;fill-rule:evenodd;fill:rgb(0%,0%,0%);fill-opacity:1;" d="M 34.644531 1.0625 C 31.550781 1.546875 23.859375 2.6875 23.707031 2.6875 C 23.65625 2.6875 23.613281 5.105469 23.613281 8.0625 L 23.613281 13.441406 L 38.128906 13.441406 L 38.128906 7.007812 C 38.128906 1 38.105469 0.578125 37.789062 0.601562 C 37.605469 0.613281 36.1875 0.824219 34.644531 1.0625 M 16.546875 3.757812 C 13.566406 4.207031 11.105469 4.582031 11.082031 4.589844 C 11.054688 4.601562 11.03125 6.59375 11.03125 9.023438 L 11.03125 13.441406 L 22.257812 13.441406 L 22.257812 8.265625 C 22.257812 5.421875 22.191406 3.0625 22.113281 3.019531 C 22.03125 2.976562 19.527344 3.308594 16.546875 3.757812 M 11.078125 19.332031 L 11.128906 23.882812 L 16.257812 24.601562 C 19.078125 24.996094 21.582031 25.328125 21.824219 25.332031 L 22.257812 25.34375 L 22.257812 14.785156 L 11.023438 14.785156 L 11.078125 19.332031 M 23.613281 20.21875 L 23.613281 25.652344 L 30.726562 26.65625 C 34.636719 27.207031 37.902344 27.65625 37.984375 27.652344 C 38.0625 27.648438 38.128906 24.753906 38.128906 21.214844 L 38.128906 14.785156 L 23.613281 14.785156 L 23.613281 20.21875 M 25.449219 29.378906 C 25.382812 29.488281 25.339844 29.898438 25.359375 30.292969 C 25.433594 31.894531 25.4375 31.886719 24.675781 31.570312 C 23.335938 31.015625 22.085938 32.011719 21.917969 33.777344 C 21.804688 34.914062 22.273438 35.996094 23.046875 36.390625 C 23.777344 36.765625 24.167969 36.746094 24.917969 36.289062 C 25.433594 35.980469 25.546875 35.960938 25.546875 36.195312 C 25.546875 36.351562 25.722656 36.480469 25.933594 36.480469 C 26.308594 36.480469 26.324219 36.351562 26.324219 32.832031 C 26.324219 29.347656 26.304688 29.183594 25.945312 29.183594 C 25.738281 29.183594 25.515625 29.273438 25.449219 29.378906 M 5.855469 29.808594 C 5.90625 29.941406 6.285156 31.5 6.695312 33.273438 C 7.421875 36.410156 7.457031 36.496094 7.917969 36.441406 C 8.355469 36.386719 8.441406 36.183594 9.074219 33.75 C 9.449219 32.304688 9.792969 31.152344 9.832031 31.195312 C 9.90625 31.265625 11.015625 36.050781 11.027344 36.335938 C 11.039062 36.640625 11.976562 36.46875 12.074219 36.144531 C 12.46875 34.808594 13.742188 29.949219 13.742188 29.78125 C 13.742188 29.664062 13.570312 29.566406 13.363281 29.566406 C 12.945312 29.566406 12.863281 29.789062 12.171875 32.820312 C 11.941406 33.832031 11.695312 34.71875 11.625 34.800781 C 11.554688 34.878906 11.242188 33.734375 10.929688 32.253906 C 10.375 29.636719 10.347656 29.566406 9.855469 29.566406 C 9.367188 29.566406 9.335938 29.648438 8.699219 32.347656 C 8.335938 33.875 7.988281 35.019531 7.925781 34.890625 C 7.859375 34.761719 7.5625 33.511719 7.265625 32.113281 C 6.742188 29.683594 6.699219 29.566406 6.242188 29.566406 C 5.941406 29.566406 5.796875 29.65625 5.855469 29.808594 M 14.453125 29.835938 C 14.394531 29.984375 14.46875 30.265625 14.613281 30.460938 C 14.863281 30.792969 14.902344 30.796875 15.207031 30.496094 C 15.390625 30.316406 15.484375 30.039062 15.417969 29.871094 C 15.273438 29.496094 14.59375 29.472656 14.453125 29.835938 M 18.332031 31.660156 C 17.765625 31.945312 17.613281 31.964844 17.613281 31.753906 C 17.613281 31.609375 17.4375 31.488281 17.226562 31.488281 C 16.859375 31.488281 16.839844 31.617188 16.839844 33.984375 C 16.839844 36.308594 16.863281 36.480469 17.207031 36.480469 C 17.539062 36.480469 17.582031 36.296875 17.640625 34.640625 C 17.714844 32.617188 17.921875 32.257812 18.996094 32.257812 C 19.757812 32.257812 19.933594 32.726562 19.933594 34.738281 L 19.933594 36.480469 L 20.9375 36.480469 L 20.871094 34.46875 C 20.8125 32.617188 20.769531 32.417969 20.324219 31.992188 C 19.625 31.324219 19.152344 31.246094 18.332031 31.660156 M 28.933594 31.566406 C 27.984375 31.980469 27.621094 32.539062 27.519531 33.730469 C 27.410156 35.058594 27.820312 35.9375 28.746094 36.375 C 29.550781 36.753906 29.875 36.75 30.722656 36.351562 C 32.648438 35.441406 32.445312 32.050781 30.425781 31.496094 C 29.5625 31.257812 29.648438 31.253906 28.933594 31.566406 M 14.515625 33.984375 C 14.515625 36.351562 14.535156 36.480469 14.902344 36.480469 C 15.269531 36.480469 15.289062 36.351562 15.289062 33.984375 C 15.289062 31.617188 15.269531 31.488281 14.902344 31.488281 C 14.535156 31.488281 14.515625 31.617188 14.515625 33.984375 M 32.574219 31.75 C 32.632812 31.894531 32.960938 33.015625 33.308594 34.246094 C 33.863281 36.210938 33.988281 36.480469 34.355469 36.480469 C 34.710938 36.480469 34.855469 36.210938 35.371094 34.609375 C 35.699219 33.578125 36.011719 32.867188 36.0625 33.023438 C 36.117188 33.183594 36.363281 34.003906 36.617188 34.847656 C 36.988281 36.097656 37.152344 36.394531 37.488281 36.441406 C 37.855469 36.496094 37.964844 36.308594 38.414062 34.8125 C 38.695312 33.882812 39.042969 32.753906 39.191406 32.304688 C 39.457031 31.5 39.453125 31.488281 39.011719 31.488281 C 38.636719 31.488281 38.523438 31.640625 38.332031 32.398438 C 38.207031 32.902344 37.96875 33.789062 37.800781 34.367188 L 37.492188 35.425781 L 37.242188 34.558594 C 37.105469 34.085938 36.851562 33.199219 36.675781 32.59375 C 36.4375 31.753906 36.273438 31.488281 36 31.488281 C 35.710938 31.488281 35.53125 31.835938 35.132812 33.167969 C 34.851562 34.09375 34.574219 34.976562 34.511719 35.136719 C 34.449219 35.292969 34.1875 34.539062 33.925781 33.457031 C 33.480469 31.601562 33.425781 31.488281 32.964844 31.488281 C 32.628906 31.488281 32.507812 31.570312 32.574219 31.75 M 40.460938 31.863281 C 39.640625 32.675781 40.078125 33.703125 41.566406 34.445312 C 42.726562 35.027344 42.207031 36.046875 40.859375 35.832031 C 40.28125 35.742188 40.078125 35.78125 39.992188 36.007812 C 39.871094 36.320312 40.539062 36.671875 41.25 36.671875 C 41.886719 36.671875 42.761719 36.117188 42.882812 35.632812 C 43.089844 34.8125 42.890625 34.296875 42.195312 33.855469 C 40.785156 32.960938 40.722656 32.890625 40.960938 32.511719 C 41.125 32.25 41.390625 32.167969 41.992188 32.199219 C 42.65625 32.230469 42.789062 32.179688 42.734375 31.910156 C 42.636719 31.386719 40.976562 31.351562 40.460938 31.863281 M 23.3125 32.535156 C 22.632812 33.210938 22.632812 34.757812 23.3125 35.433594 C 24.234375 36.34375 25.171875 35.886719 25.351562 34.441406 C 25.5 33.253906 25.246094 32.46875 24.640625 32.242188 C 23.960938 31.984375 23.84375 32.011719 23.3125 32.535156 M 28.96875 32.457031 C 28.03125 33.1875 28.136719 35.296875 29.132812 35.75 C 30.554688 36.390625 31.71875 34.457031 30.878906 32.847656 C 30.425781 31.976562 29.757812 31.839844 28.96875 32.457031 M 7.644531 38.65625 C 6.882812 38.996094 6.585938 39.375 6.457031 40.160156 C 6.320312 40.992188 6.871094 41.703125 8.15625 42.347656 C 9.335938 42.941406 9.675781 43.550781 9.21875 44.246094 C 8.820312 44.847656 8.132812 45.035156 7.328125 44.757812 C 6.46875 44.457031 6.351562 44.484375 6.421875 44.96875 C 6.46875 45.285156 6.675781 45.441406 7.214844 45.566406 C 8.867188 45.953125 10.265625 45.054688 10.25 43.617188 C 10.242188 42.691406 9.90625 42.285156 8.5625 41.578125 C 7.605469 41.074219 7.441406 40.90625 7.390625 40.378906 C 7.304688 39.5 8.023438 39.046875 9.082031 39.3125 C 9.75 39.480469 9.851562 39.460938 9.933594 39.144531 C 10.050781 38.707031 9.945312 38.632812 8.980469 38.5 C 8.535156 38.441406 7.988281 38.503906 7.644531 38.65625 M 12.234375 40.8125 C 11.601562 41.253906 11.226562 42.105469 11.226562 43.105469 C 11.226562 44.855469 12.269531 45.84375 13.886719 45.625 C 14.914062 45.484375 15.109375 45.378906 14.980469 45.046875 C 14.914062 44.867188 14.609375 44.820312 13.941406 44.882812 C 13.117188 44.960938 12.933594 44.910156 12.5 44.480469 C 12.222656 44.207031 12 43.808594 12 43.59375 C 12 43.226562 12.117188 43.199219 13.671875 43.199219 L 15.339844 43.199219 L 15.238281 42.292969 C 15.164062 41.628906 14.996094 41.273438 14.621094 40.949219 C 14.011719 40.429688 12.878906 40.363281 12.234375 40.8125 M 16.453125 43.007812 C 16.453125 45.375 16.472656 45.503906 16.839844 45.503906 C 17.195312 45.503906 17.226562 45.375 17.226562 43.898438 C 17.226562 42.5625 17.292969 42.207031 17.628906 41.785156 C 17.847656 41.507812 18.195312 41.28125 18.402344 41.28125 C 18.644531 41.28125 18.773438 41.148438 18.773438 40.894531 C 18.773438 40.425781 17.980469 40.359375 17.613281 40.800781 C 17.480469 40.957031 17.296875 41.089844 17.203125 41.089844 C 17.109375 41.089844 17.03125 40.957031 17.03125 40.800781 C 17.03125 40.640625 16.902344 40.511719 16.742188 40.511719 C 16.5 40.511719 16.453125 40.917969 16.453125 43.007812 M 19.355469 40.640625 C 19.355469 40.730469 19.726562 41.835938 20.179688 43.105469 C 20.933594 45.199219 21.050781 45.40625 21.480469 45.40625 C 21.988281 45.40625 21.921875 45.539062 23.230469 42 L 23.78125 40.511719 L 23.320312 40.511719 C 22.914062 40.511719 22.796875 40.71875 22.230469 42.425781 C 21.882812 43.476562 21.550781 44.292969 21.492188 44.234375 C 21.433594 44.179688 21.117188 43.339844 20.792969 42.371094 C 20.304688 40.933594 20.117188 40.597656 19.773438 40.546875 C 19.542969 40.511719 19.355469 40.554688 19.355469 40.640625 M 25.203125 40.8125 C 24.5625 41.257812 24.195312 42.109375 24.195312 43.140625 C 24.195312 44.945312 25.335938 45.914062 27.0625 45.582031 C 27.660156 45.46875 27.96875 45.308594 27.96875 45.121094 C 27.96875 44.890625 27.753906 44.84375 26.960938 44.898438 C 26.089844 44.953125 25.886719 44.894531 25.460938 44.472656 C 25.1875 44.207031 24.96875 43.808594 24.96875 43.59375 C 24.96875 43.226562 25.085938 43.199219 26.636719 43.199219 L 28.308594 43.199219 L 28.207031 42.292969 C 28.128906 41.628906 27.964844 41.273438 27.589844 40.949219 C 26.980469 40.429688 25.847656 40.363281 25.203125 40.8125 M 29.417969 43.007812 C 29.417969 45.375 29.4375 45.503906 29.804688 45.503906 C 30.164062 45.503906 30.195312 45.375 30.195312 43.863281 C 30.195312 42.378906 30.238281 42.179688 30.667969 41.75 C 30.929688 41.492188 31.277344 41.28125 31.441406 41.28125 C 31.613281 41.28125 31.742188 41.113281 31.742188 40.894531 C 31.742188 40.414062 31.054688 40.375 30.550781 40.824219 C 30.226562 41.117188 30.191406 41.117188 30.082031 40.824219 C 30.011719 40.652344 29.835938 40.511719 29.6875 40.511719 C 29.472656 40.511719 29.417969 41.003906 29.417969 43.007812 M 12.476562 41.558594 C 11.648438 42.378906 11.828125 42.625 13.257812 42.625 C 14.386719 42.625 14.515625 42.585938 14.515625 42.238281 C 14.515625 41.742188 13.851562 41.089844 13.347656 41.089844 C 13.128906 41.089844 12.738281 41.300781 12.476562 41.558594 M 25.585938 41.425781 C 25.371094 41.609375 25.136719 41.953125 25.070312 42.191406 C 24.945312 42.609375 24.984375 42.625 26.210938 42.625 C 27.355469 42.625 27.484375 42.585938 27.484375 42.238281 C 27.484375 41.753906 26.824219 41.089844 26.34375 41.089844 C 26.144531 41.089844 25.800781 41.238281 25.585938 41.425781 "/>
</g>
</svg>
